<svg xmlns="http://www.w3.org/2000/svg" xmlns:xlink="http://www.w3.org/1999/xlink" width="83" height="92" viewBox="0 0 83 92">
  <defs>
    <clipPath id="clip-path">
      <rect id="Rectangle_4" data-name="Rectangle 4" width="42" height="92" transform="translate(303 326)" fill="#fff" stroke="#707070" stroke-width="1"/>
    </clipPath>
    <clipPath id="clip-path-2">
      <path id="Rectangle_5" data-name="Rectangle 5" d="M0,0H83a0,0,0,0,1,0,0V50.5A41.5,41.5,0,0,1,41.5,92h0A41.5,41.5,0,0,1,0,50.5V0A0,0,0,0,1,0,0Z" transform="translate(303 326)" fill="#fff" stroke="#fff" stroke-width="3"/>
    </clipPath>
  </defs>
  <g id="shield" transform="translate(-303 -326)">
    <g id="Rectangle_2" data-name="Rectangle 2" transform="translate(303 326)" fill="none" stroke="#fff" stroke-width="3">
      <path d="M0,0H83a0,0,0,0,1,0,0V50.5A41.5,41.5,0,0,1,41.5,92h0A41.5,41.5,0,0,1,0,50.5V0A0,0,0,0,1,0,0Z" stroke="none"/>
      <path d="M2.1,1.5H80.9a.6.6,0,0,1,.6.6V50.5a40,40,0,0,1-40,40h0a40,40,0,0,1-40-40V2.1a.6.6,0,0,1,.6-.6Z" fill="none"/>
    </g>
    <g id="Groupe_de_masques_1" data-name="Groupe de masques 1" clip-path="url(#clip-path)">
      <path id="Rectangle_3" data-name="Rectangle 3" d="M0,0H83a0,0,0,0,1,0,0V50.5A41.5,41.5,0,0,1,41.5,92h0A41.5,41.5,0,0,1,0,50.5V0A0,0,0,0,1,0,0Z" transform="translate(303 326)" fill="#fff"/>
    </g>
    <g id="Groupe_de_masques_2" data-name="Groupe de masques 2" clip-path="url(#clip-path-2)">
      <g id="Groupe_4" data-name="Groupe 4" transform="translate(-5 77.376)">
        <line id="Ligne_1" data-name="Ligne 1" x1="47" y2="19" transform="translate(349.5 312.876)" fill="none" stroke="#fff" stroke-width="3"/>
        <line id="Ligne_2" data-name="Ligne 2" x1="47" y2="19" transform="translate(349.5 292.459)" fill="none" stroke="#fff" stroke-width="3"/>
        <line id="Ligne_3" data-name="Ligne 3" x1="47" y2="19" transform="translate(349.5 272.041)" fill="none" stroke="#fff" stroke-width="3"/>
        <line id="Ligne_4" data-name="Ligne 4" x1="47" y2="19" transform="translate(349.5 251.624)" fill="none" stroke="#fff" stroke-width="3"/>
      </g>
    </g>
  </g>
</svg>
